<svg id="visual" viewBox="0 0 960 540" width="960" height="540" xmlns="http://www.w3.org/2000/svg" xmlns:xlink="http://www.w3.org/1999/xlink" version="1.1"><path d="M0 206L16 207C32 208 64 210 96 198.3C128 186.7 160 161.3 192 154C224 146.7 256 157.3 288 173.5C320 189.7 352 211.3 384 215C416 218.7 448 204.3 480 198C512 191.7 544 193.3 576 192.5C608 191.7 640 188.3 672 194.7C704 201 736 217 768 225C800 233 832 233 864 211.5C896 190 928 147 944 125.5L960 104L960 0L944 0C928 0 896 0 864 0C832 0 800 0 768 0C736 0 704 0 672 0C640 0 608 0 576 0C544 0 512 0 480 0C448 0 416 0 384 0C352 0 320 0 288 0C256 0 224 0 192 0C160 0 128 0 96 0C64 0 32 0 16 0L0 0Z" fill="#282b30"></path><path d="M0 325L16 320.5C32 316 64 307 96 304.3C128 301.7 160 305.3 192 308C224 310.7 256 312.3 288 318.7C320 325 352 336 384 339.7C416 343.3 448 339.7 480 331.5C512 323.3 544 310.7 576 304.3C608 298 640 298 672 308.8C704 319.7 736 341.3 768 356.7C800 372 832 381 864 365.7C896 350.3 928 310.7 944 290.8L960 271L960 102L944 123.5C928 145 896 188 864 209.5C832 231 800 231 768 223C736 215 704 199 672 192.7C640 186.3 608 189.7 576 190.5C544 191.3 512 189.7 480 196C448 202.3 416 216.7 384 213C352 209.3 320 187.7 288 171.5C256 155.3 224 144.7 192 152C160 159.3 128 184.7 96 196.3C64 208 32 206 16 205L0 204Z" fill="#25334c"></path><path d="M0 438L16 438C32 438 64 438 96 431.8C128 425.7 160 413.3 192 405.3C224 397.3 256 393.7 288 399.8C320 406 352 422 384 420.2C416 418.3 448 398.7 480 396C512 393.3 544 407.7 576 415.8C608 424 640 426 672 427.8C704 429.7 736 431.3 768 434.8C800 438.3 832 443.7 864 441C896 438.3 928 427.7 944 422.3L960 417L960 269L944 288.8C928 308.7 896 348.3 864 363.7C832 379 800 370 768 354.7C736 339.3 704 317.7 672 306.8C640 296 608 296 576 302.3C544 308.7 512 321.3 480 329.5C448 337.7 416 341.3 384 337.7C352 334 320 323 288 316.7C256 310.3 224 308.7 192 306C160 303.3 128 299.7 96 302.3C64 305 32 314 16 318.5L0 323Z" fill="#253968"></path><path d="M0 487L16 485.2C32 483.3 64 479.7 96 479.7C128 479.7 160 483.3 192 480.7C224 478 256 469 288 468.2C320 467.3 352 474.7 384 475.5C416 476.3 448 470.7 480 470.7C512 470.7 544 476.3 576 476.3C608 476.3 640 470.7 672 467.8C704 465 736 465 768 470.5C800 476 832 487 864 494.3C896 501.7 928 505.3 944 507.2L960 509L960 415L944 420.3C928 425.7 896 436.3 864 439C832 441.7 800 436.3 768 432.8C736 429.3 704 427.7 672 425.8C640 424 608 422 576 413.8C544 405.7 512 391.3 480 394C448 396.7 416 416.3 384 418.2C352 420 320 404 288 397.8C256 391.7 224 395.3 192 403.3C160 411.3 128 423.7 96 429.8C64 436 32 436 16 436L0 436Z" fill="#303c83"></path><path d="M0 541L16 541C32 541 64 541 96 541C128 541 160 541 192 541C224 541 256 541 288 541C320 541 352 541 384 541C416 541 448 541 480 541C512 541 544 541 576 541C608 541 640 541 672 541C704 541 736 541 768 541C800 541 832 541 864 541C896 541 928 541 944 541L960 541L960 507L944 505.2C928 503.3 896 499.7 864 492.3C832 485 800 474 768 468.5C736 463 704 463 672 465.8C640 468.7 608 474.3 576 474.3C544 474.3 512 468.7 480 468.7C448 468.7 416 474.3 384 473.5C352 472.7 320 465.3 288 466.2C256 467 224 476 192 478.7C160 481.3 128 477.7 96 477.7C64 477.7 32 481.3 16 483.2L0 485Z" fill="#493c9b"></path></svg>